# xmcd
#
# Track frame offsets: 
#        150
#        33171
#        51616
#        70162
#        87891
#        109686
#        127462
#        147843
#        168648
#        179867
#        198949
#        216888
#        231781
#        248293
#        265505
#        284821
#        306926
#        322160
#
# Disc length: 4556 seconds
#
# Revision: 1
# Processed by: cddbd v1.5.2PL0 Copyright (c) Steve Scherf et al.
# Submitted via: ExactAudioCopy v0.99pb4
#
DISCID=1b11ca12
DTITLE=Chris Rea - The Ultimate Collection - 1978 - 2000
DYEAR=2007
DGENRE=Blues, Pop, Rock
TTITLE0=Auberge
TTITLE1=Fool (If You Think It's Over)
TTITLE2=Lets Dance
TTITLE3=Josephine
TTITLE4=The Blue Cafe
TTITLE5=Julia
TTITLE6=Ace Of Hearts
TTITLE7=Winter Song
TTITLE8=Bless Them All
TTITLE9=Heaven
TTITLE10=Lucky Day
TTITLE11=The Mention Of Your Name
TTITLE12=Love's Strange Ways
TTITLE13=Loving You
TTITLE14=Nothing's Happening By The Sea
TTITLE15=Diamonds
TTITLE16=Every Beat Of My Heart
TTITLE17=I Can't Dance To That
EXTD=Enjoy!
EXTT0=
EXTT1=
EXTT2=
EXTT3=
EXTT4=
EXTT5=
EXTT6=
EXTT7=
EXTT8=
EXTT9=
EXTT10=
EXTT11=
EXTT12=
EXTT13=
EXTT14=
EXTT15=
EXTT16=
EXTT17=
PLAYORDER=
